<?xml version="1.0" encoding="UTF-8"?>
<svg id="Layer_1" data-name="Layer 1" xmlns="http://www.w3.org/2000/svg" viewBox="0 0 380.14 114.36">
  <defs>
    <style>
      .cls-1 {
        fill: #f36e26;
      }

      .cls-2 {
        fill: #231f20;
      }

      .cls-3 {
        isolation: isolate;
      }
    </style>
  </defs>
  <path class="cls-1" d="M6,0h53.68c15.28,0,27.68,12.4,27.68,27.68h0c0,15.28-12.4,27.68-27.68,27.68H6c-3.31,0-6-2.69-6-6V6C0,2.69,2.69,0,6,0Z"/>
  <path class="cls-2" d="M53.63,58.95h24.33c15.28,0,27.68,12.4,27.68,27.68h0c0,15.28-12.4,27.68-27.68,27.68h-24.33c-3.31,0-6-2.69-6-6v-43.36c0-3.31,2.69-6,6-6Z"/>
  <circle class="cls-1" cx="22.09" cy="92.22" r="22.09"/>
  <g class="cls-3">
    <path class="cls-2" d="M113.34,111.51l8.1-44.83c.28-1.54,1.78-2.8,3.35-2.8h35.92c7.39,0,12.3,5.89,11,13.15l-.73,4.03c-.06.12-.05.23-.07.36-.47,2.61-1.93,4.96-3.9,6.76.18-.17,1.79,2.79,1.91,3.06.46,1.12.63,2.19.61,3.32-.01.92-.15,1.89-.33,2.94l-.8,4.44c-1.23,6.82-7.86,12.35-14.8,12.35h-37.91c-1.57,0-2.62-1.25-2.34-2.8ZM130.49,100.67c-.05.31.15.56.47.56h19.87c1.4,0,2.74-1.12,2.99-2.5l.25-1.39c.25-1.38-.68-2.5-2.09-2.5h-19.87c-.31,0-.62.25-.67.56l-.96,5.26ZM133.8,82.32c-.05.31.15.56.47.56h18.59c1.4,0,2.74-1.12,2.99-2.5l.25-1.39c.25-1.38-.68-2.49-2.09-2.49h-18.59c-.31,0-.61.25-.67.56l-.96,5.26Z"/>
  </g>
  <g class="cls-3">
    <path class="cls-2" d="M224.52,110.58c.56,1.71-.86,3.73-2.61,3.73h-10.34c-.91,0-1.67-.58-1.95-1.47l-1.06-3.44h-21.32l-.75,1.16-1.71,2.42c-.59.82-1.54,1.33-2.49,1.33h-10.92c-2,0-2.95-2.13-1.71-3.85l26.25-39.77c1.69-2.28,3.88-2.46,6.17-2.55h0c.84,0,5.39.04,6.02.03.9,0,2.72.54,3.45,2.61l12.98,39.79ZM201.7,87.36l-6.79,10.36h10.06l-3.27-10.36Z"/>
    <path class="cls-2" d="M269.72,104.59l-1.23,6.84c-.29,1.61-1.81,2.88-3.45,2.88h-33.48c-.82,0-1.54-.32-2.02-.9-.48-.58-.67-1.34-.52-2.14l7.28-40.3c.29-1.62,1.81-2.88,3.45-2.88h8.55c1.7,0,2.84,1.38,2.53,3.04l-5.31,29.43c-.05.27,0,.52.16.71.15.18.39.28.67.28h20.83c1.7,0,2.84,1.38,2.54,3.04Z"/>
  </g>
  <g class="cls-3">
    <path class="cls-2" d="M327.14,70.46l-21.57,20.79c-.05.05-.06.09-.06.1l13.98,20.67c.28.42.29.95.03,1.43-.3.55-.88.91-1.48.91h-13.33c-.9,0-1.69-.4-2.16-1.09l-7.91-11.7-5.75,5.5c-.22.21-.36.47-.41.74l-.66,3.62c-.29,1.62-1.81,2.88-3.45,2.88h-8.55c-1.7,0-2.84-1.38-2.54-3.04l7.28-40.3c.29-1.61,1.81-2.88,3.45-2.88h8.55c1.7,0,2.84,1.38,2.54,3.04l-2.81,15.56h0s.02,0,.02-.02l18.27-17.61c.67-.65,1.55-1.02,2.42-1.02h13.33c1.26,0,1.76,1.47.8,2.42Z"/>
  </g>
  <g class="cls-3">
    <path class="cls-2" d="M379.94,80.3l-3.94,21.82c-1.21,6.72-7.77,12.19-14.61,12.19h-26.16c-6.99,0-11.55-5.6-10.33-12.35l3.94-21.82c1.21-6.72,7.77-12.19,14.61-12.19h26.16c6.99,0,11.55,5.6,10.33,12.35ZM339.93,101.27c.15.18.39.28.67.28h19.7c.63,0,1.27-.53,1.38-1.15l3.41-18.88c.05-.27,0-.52-.16-.71-.15-.18-.39-.29-.67-.29h-19.69c-.64,0-1.27.53-1.38,1.15l-3.41,18.88c-.05.27,0,.52.16.71Z"/>
  </g>
</svg>