<?xml version="1.0" encoding="UTF-8"?>
<svg id="Layer_1" data-name="Layer 1" xmlns="http://www.w3.org/2000/svg" viewBox="0 0 105.65 114.31">
  <defs>
    <style>
      .cls-1 {
        fill: #231f20;
      }

      .cls-2 {
        fill: #f36e26;
      }
    </style>
  </defs>
  <path class="cls-2" d="M6,0h53.68C74.96,0,87.36,12.4,87.36,27.68h0c0,15.28-12.4,27.68-27.68,27.68H6C2.69,55.36,0,52.67,0,49.36V6C0,2.69,2.69,0,6,0Z"/>
  <path class="cls-1" d="M53.63,58.95h24.33c15.28,0,27.68,12.4,27.68,27.68h0c0,15.28-12.4,27.68-27.68,27.68h-24.33c-3.31,0-6-2.69-6-6v-43.36c0-3.31,2.69-6,6-6Z"/>
  <circle class="cls-2" cx="22.09" cy="92.22" r="22.09"/>
</svg>